<svg id="color" enable-background="new 0 0 24 24" height="512" viewBox="0 0 24 24" width="512" xmlns="http://www.w3.org/2000/svg"><path d="m22 2.75c0-1.519-1.231-2.75-2.75-2.75h-14.5c-1.519 0-2.75 1.231-2.75 2.75v18.5c0 1.519 1.231 2.75 2.75 2.75h14.5c1.519 0 2.75-1.231 2.75-2.75z" fill="#eceff1"/><path d="m12 0h-7.25c-1.519 0-2.75 1.231-2.75 2.75v18.5c0 1.519 1.231 2.75 2.75 2.75h7.25z" fill="#cdd0d2"/><g fill="#607d8b"><path d="m8.25 21h-1.5c-.965 0-1.75-.785-1.75-1.75v-2.5c0-.965.785-1.75 1.75-1.75h1.5c.414 0 .75.336.75.75s-.336.75-.75.75h-1.5c-.138 0-.25.112-.25.25v2.5c0 .138.112.25.25.25h1.5c.414 0 .75.336.75.75s-.336.75-.75.75z"/><path d="m10.75 21c-.414 0-.75-.336-.75-.75v-4.5c0-.414.336-.75.75-.75h1.25c1.103 0 2 .897 2 2s-.897 2-2 2h-.5v1.25c0 .414-.336.75-.75.75zm.75-3.5h.5c.276 0 .5-.224.5-.5s-.224-.5-.5-.5h-.5z"/><path d="m15.75 21c-.414 0-.75-.336-.75-.75v-4.5c0-.414.336-.75.75-.75h1.25c1.103 0 2 .897 2 2s-.897 2-2 2h-.5v1.25c0 .414-.336.75-.75.75zm.75-3.5h.5c.276 0 .5-.224.5-.5s-.224-.5-.5-.5h-.5z"/></g><path d="m6.5 18h-1.5v1.25c0 .965.785 1.75 1.75 1.75h1.5c.414 0 .75-.336.75-.75s-.336-.75-.75-.75h-1.5c-.138 0-.25-.112-.25-.25z" fill="#546d79"/><path d="m13.732 18h-3.732v2.25c0 .414.336.75.75.75s.75-.336.75-.75v-1.25h.5c.739 0 1.385-.403 1.732-1z" fill="#546d79"/><path d="m18.732 18h-3.732v2.25c0 .414.336.75.75.75s.75-.336.75-.75v-1.25h.5c.739 0 1.385-.403 1.732-1z" fill="#546d79"/></svg>